# Blender v2.80 (sub 75) OBJ File: 'Ticket.blend'
# www.blender.org
o Plane
v -0.473322 0.009950 -0.182219
v 0.473322 0.009950 -0.182219
v -0.473322 0.009950 0.182219
v 0.473322 0.009950 0.182219
v -0.473322 0.010000 0.182219
v 0.473322 0.010000 0.182219
v -0.473322 0.010000 -0.182219
v 0.473322 0.010000 -0.182219
vt 0.000133 -0.000281
vt 1.000049 0.000121
vt 1.000079 1.000136
vt 0.000043 1.000078
vt 1.000079 1.000136
vt 0.000043 1.000078
vt 0.000133 -0.000281
vt 1.000049 0.000121
vn 0.0000 -1.0000 -0.0000
vn 0.0000 1.0000 -0.0000
s off
f 1/1/1 2/2/1 4/3/1 3/4/1
f 5/5/2 6/6/2 8/7/2 7/8/2
